# xmcd CD database file
# Copyright (C) 1993-1998 Ti Kan
# 
# Track frame offsets:
#     150
#     17250
#     32375
#     50837
#     69075
#     83407
#     103650
#     129107
#     145625
#     166550
#     180000
#     195075
#     218287
# 
# Disc length: 3078 seconds
# 
# Revision: 1
# Processed by: cddbd v1.4b41PL1 Copyright (c) Steve Scherf et al.
# Submitted via: DiscPlay 4.0.4
# 
DISCID=7d0c040d
DTITLE=Johnny Thompson Singers - The Most Beautiful Gospel-Songs Vol. 2
DYEAR=1900
DGENRE=
TTITLE0=Precious Lord - Amazing Grace
TTITLE1=Lord Show Me
TTITLE2=Oh Lord I Am Grateful
TTITLE3=Blowing In The Wind
TTITLE4=Ezekiel Saw The Wheel
TTITLE5=Balm In Gilead
TTITLE6=The Lord Is
TTITLE7=That Will Make Me Happy
TTITLE8=Hold To Your Testimony
TTITLE9=Little Drummer Boy
TTITLE10=Steal Away
TTITLE11=Will You Be There
TTITLE12=On My Way To Zion
EXTD=
EXTT0=
EXTT1=
EXTT2=
EXTT3=
EXTT4=
EXTT5=
EXTT6=
EXTT7=
EXTT8=
EXTT9=
EXTT10=
EXTT11=
EXTT12=
PLAYORDER=
